<svg xmlns="http://www.w3.org/2000/svg" viewBox="0 0 2454.4 1089.13"><style><![CDATA[.AR{fill:#a173ff}.AS{fill:#fff}.AT{fill-rule:evenodd}.AU{fill:#7befc5}.AV{fill:#00e498}.AW{fill:#ffa49f}.AX{fill:#8b19fe}.AY{fill:#fe897e}]]></style><defs><clipPath id="A"><path d="M821.4 874.18l-72.21-634.92h83.52l45.24 494.33v49.89h18.27v-49.89l44.37-494.33h114.84l45.24 494.33v49.89h17.4v-49.89l45.24-494.33h80.31l-72.21 634.92h-120.33l-46.11-468.93V321.8h-17.4v83.45l-46.11 468.93H821.4zm614.2-634.92c38.28 0 69.16 11.49 92.65 34.47 23.49 22.99 35.23 53.51 35.23 91.61v382.77c0 38.1-11.74 68.64-35.23 91.61-23.49 22.99-54.37 34.47-92.65 34.47h-137.46V239.26h137.46zm47.85 504.31v-373.7c0-16.33-4.79-29.48-14.35-39.46s-22.19-14.97-37.84-14.97h-53.07v482.54h53.07c15.66 0 28.27-4.99 37.84-14.97s14.35-23.13 14.35-39.46zm153.12 130.61V239.26h80.04v634.92h-80.04z" fill="none"/></clipPath><linearGradient id="B" x1="202.25" y1="360.02" x2="509.9" y2="360.02" gradientTransform="translate(1206.91) rotate(-180) scale(1 -1)" href="#AJ"><stop offset="0" stop-color="#feafa8"/><stop offset="1" stop-color="#fff"/></linearGradient><linearGradient id="C" x1="271.73" y1="351.34" x2="336.99" y2="286.09" href="#B"/><linearGradient id="D" x1="292.83" y1="417.56" x2="419.79" y2="290.6" href="#B"/><linearGradient id="E" x1="282.81" y1="431.88" x2="359.04" y2="355.66" href="#B"/><linearGradient id="F" x1="255.89" y1="379.79" x2="319.48" y2="316.21" href="#B"/><linearGradient id="G" x1="381.88" y1="401.16" x2="431.49" y2="351.54" href="#B"/><linearGradient id="H" x1="272.68" y1="416.38" x2="373.1" y2="315.96" href="#B"/><linearGradient id="I" x1="240.82" y1="-21149.84" x2="277.08" y2="-21186.11" gradientTransform="translate(1206.91 -20801.8) rotate(-180)" href="#B"/><linearGradient id="J" x1="1042.83" y1="617.25" x2="804.91" y2="617.25" href="#AJ"><stop offset="0" stop-color="#ffcecc"/><stop offset="1" stop-color="#fff"/></linearGradient><linearGradient id="K" x1="838.766" y1="459.669" x2="911.835" y2="364.156" href="#AJ"><stop offset="0" stop-color="#ff9c97"/><stop offset="1" stop-color="#fff"/></linearGradient><linearGradient id="L" x1="885.001" y1="531.181" x2="891.085" y2="411.07" href="#K"/><linearGradient id="M" x1="1.91" y1="349.22" x2="55.77" y2="349.22" gradientTransform="translate(1006.57) rotate(-180) scale(1 -1)" href="#AJ"><stop offset="0" stop-color="#feafa8"/><stop offset="1" stop-color="#ffe6e6"/></linearGradient><linearGradient id="N" y1="380.89" x2="52.78" y2="380.89" href="#M"/><linearGradient id="O" x1="5.97" y1="375.69" x2="72.92" y2="375.69" gradientTransform="translate(1006.57) rotate(-180) scale(1 -1)" href="#AJ"><stop offset="0" stop-color="#feafa8"/><stop offset="1" stop-color="#ffe6e6"/></linearGradient><linearGradient id="P" x1="1.91" y1="361.98" x2="44.38" y2="361.98" gradientTransform="translate(1006.57) rotate(-180) scale(1 -1)" href="#B"/><linearGradient id="Q" y1="370.92" x2="28.84" y2="370.92" href="#M"/><linearGradient id="R" x1="-2397.51" y1="328.54" x2="-2323.62" y2="328.54" gradientTransform="translate(-1405.66) rotate(-180) scale(1 -1)" href="#O"/><linearGradient id="S" x1="-397.01" y1="925.81" x2="-397.01" y2="691.13" gradientTransform="translate(739.58) rotate(-180) scale(1 -1)" href="#AJ"><stop offset="0" stop-color="#e2d3ff"/><stop offset="1" stop-color="#fff"/></linearGradient><linearGradient id="T" x1="-612.92" y1="558.12" x2="-305.27" y2="558.12" gradientTransform="translate(739.58) rotate(-180) scale(1 -1)" href="#AJ"><stop offset="0" stop-color="#c3a6ff"/><stop offset="1" stop-color="#fff"/></linearGradient><linearGradient id="U" x1="-543.43" y1="549.45" x2="-478.18" y2="484.19" href="#T"/><linearGradient id="V" x1="-522.34" y1="615.66" x2="-395.37" y2="488.7" href="#T"/><linearGradient id="W" x1="-532.35" y1="629.98" x2="-456.13" y2="553.76" href="#T"/><linearGradient id="X" x1="-559.27" y1="577.89" x2="-495.69" y2="514.31" href="#T"/><linearGradient id="Y" x1="-433.29" y1="599.26" x2="-383.67" y2="549.64" href="#T"/><linearGradient id="Z" x1="-542.49" y1="614.48" x2="-442.07" y2="514.06" href="#T"/><linearGradient id="a" x1="-2908.4" y1="-7534.65" x2="-2822.93" y2="-7449.19" gradientTransform="translate(290.02 -7268.19) rotate(-28.64) scale(1 -1)" href="#T"/><linearGradient id="b" x1="-1798.44" y1="-7923.42" x2="-1713.37" y2="-7838.35" gradientTransform="translate(1339.99 -7374.91) rotate(-12.48) scale(1 -1)" href="#T"/><linearGradient id="c" x1="-612.92" y1="548.14" x2="-559.06" y2="548.14" gradientTransform="translate(739.58) rotate(-180) scale(1 -1)" href="#AJ"><stop offset="0" stop-color="#c3a6ff"/><stop offset="1" stop-color="#f1ebff"/></linearGradient><linearGradient id="d" y1="579.81" x2="-562.05" y2="579.81" href="#c"/><linearGradient id="e" x1="-608.86" y1="569.4" x2="-541.91" y2="569.4" gradientTransform="translate(739.58) rotate(-180) scale(1 -1)" href="#AJ"><stop offset="0" stop-color="#c3a6ff"/><stop offset="1" stop-color="#ece3ff"/></linearGradient><linearGradient id="f" y1="560.9" x2="-570.45" y2="560.9" href="#T"/><linearGradient id="g" y1="569.84" x2="-585.99" y2="569.84" href="#c"/><linearGradient id="h" x1="-605.76" y1="527.01" x2="-526.21" y2="527.01" href="#e"/><linearGradient id="i" x1="-2172.61" y1="-3673.83" x2="-2087.88" y2="-3589.1" gradientTransform="translate(-1292.36 -2652.46) rotate(-73.95) scale(1 -1)" href="#AJ"><stop offset="0" stop-color="#61f2c0"/><stop offset="1" stop-color="#fff"/></linearGradient><linearGradient id="j" x1="1685.6" y1="357.48" x2="1986.1" y2="357.48" gradientTransform="translate(3209.78) rotate(-180) scale(1 -1)" href="#i"/><linearGradient id="k" x1="1747.93" y1="348.8" x2="1813.19" y2="283.55" gradientTransform="translate(3209.78) rotate(-180) scale(1 -1)" href="#i"/><linearGradient id="l" x1="1769.03" y1="415.02" x2="1895.99" y2="288.06" gradientTransform="translate(3209.78) rotate(-180) scale(1 -1)" href="#i"/><linearGradient id="m" x1="1759.01" y1="429.34" x2="1835.24" y2="353.12" gradientTransform="translate(3209.78) rotate(-180) scale(1 -1)" href="#i"/><linearGradient id="n" x1="1731.6" y1="373.63" x2="1787.73" y2="317.5" gradientTransform="translate(3209.78) rotate(-180) scale(1 -1)" href="#i"/><linearGradient id="o" x1="1858.08" y1="398.61" x2="1907.69" y2="349" gradientTransform="translate(3209.78) rotate(-180) scale(1 -1)" href="#i"/><linearGradient id="p" x1="1748.88" y1="413.84" x2="1849.29" y2="313.42" gradientTransform="translate(3209.78) rotate(-180) scale(1 -1)" href="#i"/><linearGradient id="q" x1="1685.63" y1="326" x2="1765.15" y2="326" gradientTransform="translate(3209.78) rotate(-180) scale(1 -1)" href="#AJ"><stop offset="0" stop-color="#61f2c0"/><stop offset="1" stop-color="#baffe8"/></linearGradient><linearGradient id="r" x1="660.21" y1="-3173.22" x2="714.07" y2="-3173.22" gradientTransform="translate(4217.52 2089.24) rotate(135) scale(1 -1)" href="#AJ"><stop offset="0" stop-color="#61f2c0"/><stop offset="1" stop-color="#c4ffea"/></linearGradient><linearGradient id="s" y1="-3141.55" x2="711.08" y2="-3141.55" href="#r"/><linearGradient id="t" x1="664.27" y1="-3151.96" x2="731.21" y2="-3151.96" gradientTransform="translate(4217.52 2089.24) rotate(135) scale(1 -1)" href="#q"/><linearGradient id="u" x1="660.21" y1="-3160.46" x2="702.68" y2="-3160.46" gradientTransform="translate(4217.52 2089.24) rotate(135) scale(1 -1)" href="#i"/><linearGradient id="v" y1="-3151.52" x2="687.14" y2="-3151.52" href="#r"/><linearGradient id="w" x1="673.18" y1="-3194.44" x2="746.92" y2="-3194.44" gradientTransform="translate(4217.52 2089.24) rotate(135) scale(1 -1)" href="#q"/><linearGradient id="x" x1="1533.77" y1="754.84" x2="1533.77" y2="555.58" href="#AJ"><stop offset="0" stop-color="#b9e0d3"/><stop offset="1" stop-color="#fff"/></linearGradient><linearGradient id="y" x1="-3264.41" y1="-3089.69" x2="-3180.1" y2="-3005.38" gradientTransform="translate(-543.7 -3467.66) rotate(-160.91)" href="#i"/><linearGradient id="z" x1="-4170.82" y1="-535.31" x2="-4086.51" y2="-451" gradientTransform="translate(-2603.71 385.15) rotate(173.93)" href="#i"/><linearGradient id="AA" x1="-4056.78" y1="-1529.97" x2="-4041.58" y2="-1529.97" gradientTransform="translate(11373.86 339.11) rotate(-9.49) scale(2.17 1.06) skewX(16.78)" href="#AJ"><stop offset="0" stop-color="#c997ff"/><stop offset="1" stop-color="#fff"/></linearGradient><linearGradient id="AB" x1="-2535.76" y1="1186.05" x2="-2520.08" y2="1186.05" gradientTransform="translate(5375.39 -1662.06) rotate(-9.49) scale(2.17 1.06) skewX(16.78)" href="#AJ"><stop offset="0" stop-color="#99ffda"/><stop offset="1" stop-color="#fff"/></linearGradient><linearGradient id="AC" x1="380.11" y1="54.47" x2="395.8" y2="54.47" gradientTransform="translate(414.63 636.61) rotate(-9.49) scale(2.17 1.06) skewX(16.78)" href="#K"/><linearGradient id="AD" x1="674.36" y1="-3194.44" x2="746.92" y2="-3194.44" gradientTransform="translate(4217.52 2089.24) rotate(135) scale(1 -1)" href="#q"/><path id="AE" d="M930.31 340.33l61.54-.2-8.38-8.86h-49.54l-15.97-14.51v12.3l12.35 11.27z"/><path id="AF" d="M1278.15 538.79l67.2-.2-8.38-8.85h-55.2l-15.98-14.51v12.3l12.36 11.26z"/><path id="AG" d="M1696.2 599.13h20.39v24.56h-20.39z"/><path id="AH" d="M1636.57 743.87h-20.39v-24.56h20.39z"/><path id="AI" d="M936.198 335.454l26.67 12.442a3.06 3.06 0 0 1 1.479 4.067l-2.951 6.326c-2.955 6.335-10.491 9.076-16.825 6.121l-17.971-8.384c-1.667-.778-2.393-2.771-1.615-4.439l6.773-14.518c.778-1.667 2.771-2.393 4.439-1.615z"/><linearGradient id="AJ" gradientUnits="userSpaceOnUse"/></defs><path d="M1163.31 239.26l-45.24 494.33v49.89h-17.4v-49.89l-45.24-494.33H940.59l-44.37 494.33v49.89h-18.27v-49.89l-45.24-494.33h-83.52l23.71 208.45h20.48l4.17 24.58h-21.86l-.12-1.01 45.82 402.91h120.06l46.11-468.93v-83.45h17.4v83.45l39.72 403.94h20.48l3.46 24.58h-21.52l3.97 40.42h120.06l72.21-634.92h-80.04zm52.55 56.97l3.32-24.58h20.48l-2.8 24.58h-21.01zm219.74-56.97h-137.46v634.92h137.46c38.28 0 69.16-11.48 92.65-34.47 23.49-22.97 35.23-53.51 35.23-91.61V365.33c0-38.1-11.74-68.62-35.23-91.61-23.49-22.97-54.37-34.47-92.65-34.47zm68.24 274.35h-20.39v229.96c0 16.33-4.79 29.48-14.35 39.46S1446.91 798 1431.26 798h-53.07V548.53h-20.39v-24.56h20.39V315.45h53.07c15.66 0 28.27 4.99 37.84 14.97s14.35 23.13 14.35 39.46v119.18h20.39v24.56zm132.73-274.35v480.05h20.39v24.56h-20.39v130.31h80.04V239.26h-80.04zM1696.2 809h-20.39v-24.56h20.39V809zm0-185.32h-20.39v-24.56h20.39v24.56zm20.39-315.18h-20.39v-24.56h20.39v24.56z" class="AX"/><g clip-path="url(#A)"><path d="M1483.45 346.96v142.1h20.39v24.56h-20.39v440.77h596.61V346.96h-596.61zm173.51 396.91h-20.39v-24.56h20.39v24.56zM1696.2 809h-20.39v-24.56h20.39V809zm0-185.32h-20.39v-24.56h20.39v24.56z" class="AV"/><path d="M570.75 783.48h538.58V235.42H570.75v548.06zm222.63-335.77l4.17 24.58h-21.86l-2.8-24.58h20.48z" class="AY"/></g><path d="M1004.66 348.26l-30.93-33.81h-49.99l-7.53-7.28h-49.67l-7.96-7.39v11.65l6.03 4.79-66.72.21-15.2-11.52v15.6l14.3 10.33 58.67-.06-14.29 12.93h-68.79l-13.2 13.92-48.41-.35-13.96-12.68v16.59l11.93 10.85 61.16-.6 12.69-14.14 38.57-.06-.05 14.36h-34.85l-33.41 34.6h-22.59l-13.09-10.5v15.53l12.42 9.04h28.24l34.28-35.51 133.78-.31-15.43 19.25H862.5l-13.8-11.56v16.05l9.91 9.22h63.27l16.56-20.3h19.98l7.74-12.66v-19.07l16.86-16.75h10.6 1.08l9.96-.37z" fill="url(#B)"/><path d="M870.61 307.06l-12.03-9.63v14l11.76 9.2h47.19l13.1 11.48-1.29 11.6 14.28-.81 9.01-10.79-28.55-25.05h-53.47z" fill="url(#C)"/><path d="M983.02 348.63l-19.97-20.04H819.04l-37.2 37.2-39.09.28-17.04-14.06v15.12l13.9 12.12h51.29l35.27-35.54h130.24l15.49 15.74 11.12-10.82z" fill="url(#D)"/><path d="M958.42 397.11l7.74-12.66H856.2l-18.38 17.76h-16.21l-12.41-7.88v12.15l12.41 8.27h21.94l17.9-17.59h68.58l28.84-.05h-.45z" fill="url(#E)"/><path d="M973.63 356.63l-13.12-13.62h-76.15l-12.84-10.9v14.46l12.65 10.67 71.43.13 8.4 9.44 9.63-10.18z" fill="url(#F)"/><path d="M834.17 371.6l-12.53 13.17h-55.71l-12.84-10.9v14.46L765.73 399l61.23.13 27.63-27.53h-20.42z" fill="url(#G)"/><path d="M884.17 370.09l-16.14-12.85h-54.66l-11.43-9.41v14.41l11.38 9.36h51.48l15.16 12.85h86.2v-14.29l-81.99-.07z" fill="url(#H)"/><path d="M967.24 370.16h-32.61l-9.85 9.09v-13.16l9.09-8.78h41.49l-8.12 8.07v4.78z" fill="url(#I)"/><path d="M921.06 381.57c.63-.58 1.08-1.2.93-2.04-.07-.39-.24-.83-.53-1.09-.67-.6-.76-1.21-.32-1.94.52-.87 1.13-1.15 2.1-.96l.72.14c-.15-.46-.19-.8-.36-1.06-.29-.41-.7-.75-1.01-1.15-.88-1.15-.67-2.31.53-3.19a4.57 4.57 0 0 0 .77-.68c.84-.94.89-1.42.01-2.32-1.13-1.16-1.88-2.46-2.15-4.03-.14-.84.1-1.51.86-1.93a19 19 0 0 1 2.28-1.08c2.71-1.08 5.01-2.8 7.31-4.47 1.27-.92 1.97-2.2 2.27-3.81.27-1.46 1.07-2.87 1.83-4.21 2.04-3.61 8.41-11.8 18.46-15.13.63-.21 1.26-.39 1.88-.56 7.89.02 15.44.68 22.44 5.26 11.81 7.73 18.54 22.44 16.14 35.88a50.19 50.19 0 0 1-.7 2.39c-.94 2.95-2.11 5.97-3.57 8.85a40.69 40.69 0 0 1-4.71 6.46 4.44 4.44 0 0 0-.55.31c-2.47 1.73-4.74 2.88-7.72 3.64-2.88.74-5.88 1.04-8.75 1.8-3.39.89-6.03 2.69-7.44 5.52-.1.02-.2.03-.29.05a18.07 18.07 0 0 1-6.14-3.13c-2.33-1.83-7.16-3.25-14.4-2.6-.83-2.1-5.65-2.37-8.12-3.18-1.33-.43-2.72-.7-4.09-.98-2.41-.5-4.08-1.03-6.17-2.38-3.26-2.1-4.35-5.72-1.51-8.36z" class="AS"/><path d="M804.91,697.51c.75.01,14.02-48.68,28.54-49.39,40.7.99,62.48-4.87,76.97-43.99.11-.29,4.97-14.89,6.71-20.59,4.56-12.03,11.53-23.49,19.72-33.27.45-.53,15.09-15.3,39.22-13.31,11.55.95,28.98,10.4,31.23,23.51-7.47-1.13-17.09,1.58-18.4,8.25-.91,4.66,1.33,7.25,4.31,8.27,12.81,4.38,28.36,6.26,38.31,15.97,6.84,7.05,18.44,27.55,5.47,45.1-7.56,10.24-24.37,17.25-35.27,14.56,2.03-8.47-.89-21.1-6.33-28.42-8.52-11.49-27.52-14.55-39.31-5.66-6.6,4.98-9.85,12.72-12.69,20.24-3.74,9.9-22.11,33.06-43.41,42.28-36.4,15.75-51.87,17.43-95.05,16.45Z" fill="url(#J)"/><g class="AS"><path d="M867.75,471.01s-21.09,47.3-54.58,22.52c-4.02-2.97-21.99-.95-26.62-6.13-23.89-26.73-39.82,63.6-20.89,81.65,10.62,10.13,20.79,14.13,30.79,21.56,29.94,22.24,63.09,16.55,80,7.32,23.31-12.73,27.38-32.96,28.65-53.47,0,0-7.42-10.99-33.3-22.4,11.47,1.18,21.72,3.76,29.07,6.03,1.81.56,3.45,1.1,4.89,1.6.62-14.34,1.83-27.94,9.49-38.23,9.49-12.76-47.48-20.44-47.48-20.44Z"/><path d="M832.23,650.85c1.55-.92,4.36-3.24,7.81-6.24-27.16,15.41-106.29-19.13-96.12-56.41,4.15-15.2,24.63-16.52,52.53,2.4,2.17-11.36,28.48-76.05,30.71-87.46,1.65-8.44-7.68-2.19-5.26-10.09-9.93-4.95-43.77-19.11-74.04-8.65-55.52,19.19-69.43,71.32-62.78,107.86,19.12,105.05,131.37,111.47,145.86,107.43.03-16.22-.16-48.57,1.3-48.86Z"/></g><path d="M778.51 410.37l8.05-3.21s-6.39-1.88-6.05-3.74l17.51.17s9.36 5.76 11.78 8.06c2.41 2.12 10.19 10.23 13.75 12.96 3.53 2.53 39.8 13.33 55.09 6.72.04-.04.08-.07.12-.11h.15c.01 0 .02 0 .03-.01h0c54.92-1.46 65.32-35.82 86.37-26.02-6.43-.42 8.35 20.75-2.43 21.24-6.78.31-19.42 10.22-29.58 17.66-23.28 5.96-41.6 11.61-51.92 10.02-25.75 2.15-52.3-17.45-66.3-19.86-4.28-.83-8.58-5.3-9.79-6.45-1.4-1.13-15.78-8-15.23-9.7.37-1.68 4.03-3.34 9.23-.6l-3.73-2.52s-15.32 3.43-14.99-.43l10.53-3.84s-12.49 2.58-12.61-.32z" fill="url(#K)" class="AT"/><path d="M979.55,388.31c2.29-1.88-5.88-7.76-10.72-12.68-4.34-4.4-17.83,12.36-28.43,19.25-.44,2.28,3.62,5.58,1.47,7.89-3.47,3.72-11.86,4.31-14.95,5.69-9.35,4.18-26.49,17.26-49.37,5.57-7.08,12.09-.92,22.3.32,24.64,1.36,2.57,5.04,6.47,7.82,7.45-2.7.37-7.55-.48-9.92-1.15-1.05,3.68-2.03,6.33-3.25,8.49-1.14,3.46-2.96,11.99-4.76,17.56,7.04,7.67,18.11,6.92,27.94,9.25,7.43,1.76,14.63,4.1,22.07,4.96,9.13-29.47,52.17-56.14,51.01-61.64-3.14-14.82-1.76-24.98,10.77-35.28Z" class="AS"/><path d="M807.56 524.66l4.81-7.21s-6.33 2.07-7.1.34L819.8 508s10.97-.55 14.27-.04c3.19.38 14.19 2.66 18.67 2.88 4.34.09 40.35-11.57 49.2-25.68l.03-.16.12-.09s.01-.02.02-.03h.01c44.41-32.33 33.51-66.54 56.42-70.39-5.53 3.3 17.51.76 10.03 18.88-2.59 6.27-10.21 19.42-14.36 31.31-15.81 18.11-27.7 33.14-37.1 37.68-19.99 16.36-52.98 15.27-65.88 21.21-3.99 1.74-10.07.5-11.72.24-1.79-.14-17.54 2.35-18.05.64-.65-1.59 1.42-5.03 7.26-5.73l-4.5.03s-10.68 11.5-12.6 8.14l6.5-9.13s-8.83 9.2-10.57 6.88z" fill="url(#L)" class="AT"/><path d="M1004.66 373.3v-25.95l-20.92-22.3-42.38.13-12.55 14.7h21.99l17.24 26.56h18.71l-22.08 24.71-.96 9.45h4.26 11.02l25.67-27.3z" fill="#ffccc9"/><path d="M950.8 339.88h11.94l5.95 7.93h35.97v10.75h-41.73l-12.13-18.68z" fill="url(#M)"/><path d="M953.8 390.19h23.93l26.93-29v14.21l-22.87 25.2H960.4l-6.6-10.41z" fill="url(#N)"/><path d="M933.66 379.78h40.01l12.46-12.95 8.39-5.64 6.09 3.79-1.37 1.97-21.51 23.24h-37.47l-6.6-10.41z" fill="url(#O)"/><path d="M968.04 366.39l36.62.09v-9h-42.47l5.85 8.91z" fill="url(#P)"/><path d="M986.35 366.44l-8.62 8.97 26.93-.01v-8.96h-18.31z" fill="url(#Q)"/><use href="#AE" fill="url(#R)"/><path d="M1130.34,691.13c-.08.75-3.71,38.19-4.29,52.71-9.91.12-20.28,33.49,17.42,51.38.28.13,14.39,6.27,19.92,8.5,11.58,5.6,22.38,13.56,31.39,22.58.49.49,13.91,16.39,9.79,40.25-1.97,11.42-12.92,27.95-26.18,29.03,1.78-7.34-.07-17.17-6.59-19.06-4.56-1.32-7.34.68-8.61,3.56-5.5,12.37-8.75,27.69-19.3,36.74-7.63,6.19-29.07,15.93-45.41,1.46-9.53-8.44-15.02-25.8-11.38-36.42,8.25,2.77,21.09.98,28.87-3.79,12.2-7.47,16.93-26.13,9.11-38.65-4.37-7.01-11.8-10.94-19.04-14.43-9.53-4.6-33-23.57-37.14-46.41-9.36-68.13,45.57-87.45,61.45-87.45Z" fill="url(#S)"/><path d="M1352.5 546.36l-31.45-33.81h-49.47l-7.53-7.28h-49.67l-7.96-7.39v11.65l6.03 4.79-66.72.21-15.21-11.52v16.87l13.03 10.33 58.67-.06-13.01 11.66h-68.79l-13.21 13.93-48.4-.36-13.96-12.68v16.59l11.93 10.85 61.16-.59 12.68-14.15 38.58-.06-.05 14.36h-36.9l-32.14 33.32h-23.09l-11.81-9.22v15.53l12.42 9.04h30.16l34.28-35.51 131.86-.31-15.43 19.25h-48.17l-13.79-11.56v16.05l9.91 9.23h63.27l16.56-20.3h19.98l7.74-12.67v-19.07l16.86-16.75h10.6 1.07l9.97-.37z" fill="url(#T)"/><path d="M1218.45 505.16l-12.03-9.63v14l11.76 9.2h47.19l13.1 11.48-1.29 11.6 14.28-.8 9-10.8-28.54-25.05h-53.47z" fill="url(#U)"/><path d="M1330.86 546.73l-19.98-20.04h-144.01l-37.19 37.2-39.09.29-17.04-14.07v15.12l13.9 12.12h51.29l35.27-35.54h130.24l15.49 15.74 11.12-10.82z" fill="url(#V)"/><path d="M1306.26 595.22l7.74-12.67h-109.96l-18.38 17.76h-16.21l-12.41-7.88v12.15l12.41 8.27h21.94l17.89-17.59h68.59l28.84-.04h-.45z" fill="url(#W)"/><path d="M1321.47 554.73l-13.12-13.62h-76.15l-12.84-10.9v14.46l12.64 10.67 71.44.13 8.39 9.45 9.64-10.19z" fill="url(#X)"/><path d="M1182.01 569.7l-12.53 13.17h-55.71l-12.84-10.9v14.46l12.64 10.67 61.22.13 27.64-27.53h-20.42z" fill="url(#Y)"/><path d="M1232 568.19l-16.13-12.85h-54.67l-11.42-9.4v14.4l11.38 9.36h51.48l15.16 12.85h86.2v-14.29l-82-.07z" fill="url(#Z)"/><path d="M1424.63 758.18l-2.16-8.39s5.29 4.05 6.59 2.67l-10.48-14.03s-10.18-4.14-13.46-4.74c-3.13-.7-14.27-2.17-18.58-3.44-4.13-1.35-34.27-24.23-37.97-40.47 0-.05.01-.1.02-.16-.03-.04-.06-.08-.08-.12v-.03h-.01c-31.26-45.18-9.68-73.87-30.03-85.06-8.03-6.34-21.67 5.52-15.7 14.51 3.76 5.65 3.23 21.7 3.23 34.29 8.95 22.31 15.21 40.42 22.59 47.81 13.47 22.04 44.98 31.89 55.19 41.76 3.2 2.96 9.34 3.79 10.99 4.09 1.74.46 15.78 8 16.83 6.56 1.14-1.29.32-5.22-4.97-7.8l4.24 1.52s6.28 14.38 9.21 11.84l-3.13-10.77s5.29 11.6 7.71 9.99z" fill="url(#a)" class="AT"/><path d="M1154.51,692.22c14.04,2.36,31.28,10.35,42.57,19.05,12.08,9.31,34.01,38.66,44.49,55.89,6.22,10.22,19.03,19.52,31.1,14.72,7.53-3,15.12-8.61,17.81-16.96,3.84-11.93,2.34-23.87-2.33-32.1-6.76-11.91-18.35-28.52-19.92-31-5.43-8.57-9.8-13.83-10.65-17.37-.58-2.41-.79-4.91-1.38-7.15,2.23.53,7.72.04,10.29-1.54-9.18-.41-25.02-12.24-22.83-26.19,25.29-4.52,24.17-17.61,29.09-26.59,1.62-2.96,6.84-9.42,10.55-12.91,2.39-2.25,4.7-4.89,5.46-7.4.79-2.61.82-8.83-6.07-10.88,4.28-11.9,15.73-10.42,21.85-9.53,6.83.99,12.68,12.07,14.9,14.24-10.1,3.64,1.31,9.11,4.44,18.65,2.22,6.75-21.18,60.31,9.18,92.01.07,0,15.89,14.7,29.57,30.73-7.65.87-18.07,2.63-29.05,6.16,28.29.05,39.49,7.13,39.49,7.13,2.22,3.14,12.62,20.13,10.39,39.81-8.58,75.54-82.91,81.76-118.93,70.51-23.38-7.3-41.95-23.4-56.35-42.78-16.98-22.86-25.57-48.36-48.74-66.23-5.07-3.91-11.1-6.84-12.41-7.79,1.28-7.42,7.03-44.94,7.5-52.48Z" class="AS"/><path d="M1363.97 790.06l.26-8.66s3.96 5.36 5.59 4.4l-6.17-16.39s-8.62-6.81-11.61-8.3c-2.82-1.54-13.11-6.06-16.89-8.47-3.59-2.45-26.17-32.81-25.21-49.44l.06-.15c-.02-.05-.03-.09-.05-.14v-.04h-.01c-17.45-52.09 11.26-73.65-5.17-90.07-10.92-8.18-22.36-.73-19.12 9.57 2.04 6.47-2.94 21.74-6.44 33.84 2.39 23.92 3.36 43.06 8.39 52.21 6.81 24.92 34.33 43.15 41.39 55.47 2.25 3.73 7.92 6.24 9.41 6.99 1.54.92 12.93 12.08 14.34 10.98 1.45-.92 1.76-4.93-2.6-8.88l3.65 2.64s2.03 15.56 5.55 13.94v-11.21s1.85 12.62 4.62 11.74z" fill="url(#b)" class="AT"/><path d="M1270.77 579.95c.63-.59 1.1-1.21.94-2.06-.07-.39-.24-.84-.53-1.1-.67-.61-.76-1.23-.32-1.96.53-.88 1.14-1.17 2.12-.97l.72.14c-.15-.47-.19-.81-.37-1.07-.29-.42-.71-.76-1.02-1.17-.89-1.16-.67-2.34.53-3.22.28-.21.55-.43.78-.69.85-.95.9-1.44.01-2.35-1.14-1.18-1.9-2.49-2.17-4.07-.14-.85.1-1.52.87-1.95a19.34 19.34 0 0 1 2.3-1.09c2.74-1.09 5.06-2.83 7.38-4.51 1.28-.93 1.99-2.22 2.29-3.85.28-1.48 1.08-2.9 1.85-4.25 2.06-3.65 8.49-11.92 18.65-15.28.64-.21 1.27-.4 1.9-.56 7.97.02 15.6.68 22.67 5.31 11.93 7.81 18.73 22.67 16.3 36.24-.22.81-.45 1.62-.71 2.41-.95 2.98-2.13 6.03-3.61 8.94a40.94 40.94 0 0 1-4.76 6.53 3.13 3.13 0 0 0-.55.32c-2.49 1.75-4.79 2.91-7.8 3.68-2.91.75-5.94 1.05-8.84 1.81-3.42.9-6.1 2.72-7.51 5.57-.1.02-.2.03-.3.05a18.15 18.15 0 0 1-6.2-3.16c-2.36-1.84-7.23-3.28-14.54-2.63-.84-2.12-5.71-2.4-8.2-3.21-1.34-.44-2.75-.7-4.14-.99-2.44-.51-4.13-1.04-6.24-2.4-3.29-2.12-4.4-5.77-1.53-8.45z" class="AS"/><path d="M1352.5 572.23v-25.96l-20.92-22.3-42.38.13-12.56 14.7h22l17.24 26.56h18.71l-22.08 24.72-.97 9.44h4.27 11.02l25.67-27.29z" fill="#d6c2ff"/><path d="M1298.64 538.8h11.93l5.96 7.93h35.97v10.75h-41.73l-12.13-18.68z" fill="url(#c)"/><path d="M1301.63 589.11h23.94l26.93-29v14.21l-22.87 25.2h-21.39l-6.61-10.41z" fill="url(#d)"/><path d="M1281.49 578.7h40.02l26.93-29.01v14.22l-22.87 25.2h-37.47l-6.61-10.41z" fill="url(#e)"/><path d="M1315.88 565.31l36.62.09v-9h-42.47l5.85 8.91z" fill="url(#f)"/><path d="M1333.28 565.36l-7.71 8.97 26.93-.01v-8.96h-19.22z" fill="url(#g)"/><use href="#AF" fill="url(#h)"/><path d="M1704.32,411.32l-7.42-4.33s6.54-.91,6.47-2.79l-17.2-2.39s-10.02,4.29-12.73,6.18c-2.67,1.72-11.49,8.55-15.38,10.7-3.83,1.97-40.97,7.26-55-1.46-.03-.04-.06-.08-.1-.12-.05,0-.1-.02-.15-.03,0,0-.02-.01-.03-.02h0c-53.64-9.46-58.82-44.67-80.9-38.13-10.06,1.24-11.22,19.13-.72,21.18,6.6,1.29,17.55,12.85,26.42,21.63,21.96,9.25,39.1,17.46,49.45,17.41,24.93,5.87,53.84-9.47,67.91-9.79,4.32-.19,9.19-3.94,10.54-4.89,1.53-.91,16.65-5.54,16.35-7.29-.12-1.7-3.46-3.86-8.96-1.94l4.02-1.93s14.52,5.6,14.77,1.77l-9.77-5.3s11.87,4.36,12.41,1.53Z" fill="url(#i)" class="AT"/><path d="M1467.51,555.58c11.58-8.28,29.4-14.87,43.53-16.72,15.12-1.99,51.39,3.18,71,7.9,11.64,2.8,27.26.28,32.37-11.66,3.19-7.45,4.56-16.79.54-24.59-5.74-11.14-15.26-18.5-24.39-20.99-13.21-3.61-33.15-7.12-36.02-7.76-9.9-2.2-16.71-2.81-19.83-4.71-2.11-1.29-4.03-2.9-6.04-4.07,1.95-1.21,5.48-5.45,6.17-8.37-6.77,6.22-26.33,9.09-34.67-2.3,14.64-21.11,4.57-29.55,1.68-39.38-.95-3.24-1.85-11.49-1.71-16.58.09-3.28-.15-6.78-1.39-9.09-1.29-2.4-4.97-6.67-11.28-3.23-5.41-11.43,3-18.64,7.94-22.35,5.52-4.14,17.5-.47,20.6-.51-4.54,9.73,7.38,5.5,16.35,10.01,6.35,3.19,27.8,57.56,71.68,58.41.04-.05,21.63-.89,42.64.73-4.78,6.04-10.88,14.66-16.12,24.93,19.99-20.02,32.91-22.96,32.91-22.96,3.79.64,23.17,5.25,35.54,20.73,47.48,59.38-.55,116.45-33.94,134.03-21.67,11.42-46.18,13.22-70.07,9.75-28.18-4.09-52.31-16-81.32-12.18-6.35.84-12.68,3.04-14.28,3.3-4.35-6.14-26.88-36.69-31.91-42.34Z" class="AS"/><path d="M1524.18 345.72l-23.78-33.81h-49.98l-7.54-7.28h-49.66l-7.96-7.39v11.65l6.02 4.79-66.71.21-15.21-11.52v16.87l13.03 10.33 58.66-.06-13.01 11.66h-68.79l-13.2 13.92-48.41-.35-13.95-12.68v16.58l11.92 10.86 61.17-.6 12.68-14.14 38.58-.06-.05 14.36h-36.9l-32.14 33.32h-23.1l-11.81-9.22v15.53l12.43 9.04h30.15l34.28-35.51 131.86-.31-15.42 19.25h-48.17l-13.79-11.57v16.06l9.91 9.22h63.27l16.56-20.3h19.98l7.74-12.66v-19.07l16.85-16.76h10.61 1.07l2.81-.36z" fill="url(#j)"/><path d="M1397.28 304.52l-12.02-9.63v14l11.76 9.2h47.19l13.09 11.48-1.28 11.6 14.27-.81 9.01-10.79-28.55-25.05h-53.47z" fill="url(#k)"/><path d="M1509.69 346.08l-19.97-20.03h-144.01l-37.2 37.2-39.08.28-17.05-14.06v15.12l13.91 12.12h51.29l35.27-35.54h130.24l15.48 15.74 11.12-10.83z" fill="url(#l)"/><path d="M1485.1 394.57l7.74-12.66h-109.97l-18.37 17.76h-16.22l-12.4-7.88v12.15l12.4 8.26h21.94l17.9-17.58h68.58l28.84-.05h-.44z" fill="url(#m)"/><path d="M1500.3 350.96l-11.12-10.62h-76.14l-7.16-6.67v12.46l5.96 4.44 71.43.13 7.4 10.44 9.63-10.18z" fill="url(#n)"/><path d="M1360.85 369.06l-12.53 13.17h-55.71l-12.84-10.9v14.46l12.64 10.67 61.22.13 27.64-27.53h-20.42z" fill="url(#o)"/><path d="M1410.84 367.55l-16.13-12.85h-54.67l-11.42-9.41v14.41l11.37 9.36h51.49l15.15 12.85h86.21v-14.29l-82-.07z" fill="url(#p)"/><path d="M1456.98 337.79l67.18-.2-8.38-8.86h-55.17l-15.98-14.51v12.3l12.35 11.27z" fill="url(#q)"/><path d="M1470.55 394.17c0-.88-.13-1.66-.87-2.19-.34-.24-.79-.45-1.19-.44-.92.02-1.44-.37-1.68-1.23-.28-1.02-.06-1.66.77-2.2l.61-.4c-.45-.24-.73-.47-1.05-.53-.51-.1-1.06-.06-1.58-.15-1.48-.24-2.2-1.26-2.01-2.76.04-.35.07-.71.04-1.05-.11-1.3-.43-1.69-1.73-1.75-1.67-.07-3.17-.51-4.53-1.49-.73-.53-1.06-1.19-.83-2.05.21-.82.49-1.63.81-2.42 1.11-2.73 1.45-5.63 1.83-8.51.21-1.58-.25-3.04-1.24-4.45-.9-1.29-1.39-2.91-1.85-4.44-1.26-4.14-2.87-14.76 1.75-24.36a35.83 35.83 0 0 1 .91-1.75c5.6-5.57 11.42-10.42 19.8-11.94 14.13-2.57 29.88 3.66 38.22 15.4.45.75.88 1.51 1.29 2.28 1.54 2.87 2.97 5.95 4.08 9.14.75 2.64 1.26 5.39 1.5 8.16a2.96 2.96 0 0 0-.15.62c-.45 3.04-1.2 5.5-2.73 8.18-1.48 2.59-3.38 4.93-4.84 7.53-1.73 3.06-2.26 6.28-1.14 9.38-.06.08-.11.16-.17.24a17.5 17.5 0 0 1-6.68 2c-3.01.29-12.41.65-12.12 8.24-2.15-.98-5.77 2.22-8.12 3.36-1.26.61-2.44 1.4-3.63 2.16-2.08 1.33-4.14 2.72-6.63 3.19-3.87.73-6.86-1.79-6.83-5.78z" class="AS"/><path d="M1523.9 329.29l-18.79-18.85h-33.76l-29.88 29.58 5.02 17.46 15.69-13.73 30.97 6.58 13.23-13.23 1.86 33.1 6 7.36 3.02-3.02 7.79-7.79-1.15-37.46z" fill="#bcf7e3"/><path d="M1462.18 343.75l8.44-8.44 9.82 1.39 25.43-25.44 7.61 7.61-29.51 29.51-21.79-4.63z" fill="url(#r)"/><path d="M1499.87 377.21l16.93-16.93-1.47-39.56 10.05 10.05 1.65 34-15.12 15.13-12.04-2.69z" fill="url(#s)"/><path d="M1478.27 384.08l28.3-28.29-1.47-39.56 10.45 10.46 1.25 33.59-26.49 26.49-12.04-2.69z" fill="url(#t)"/><path d="M1493.12 350.3l25.96-25.83-6.37-6.36-30.03 30.03 10.44 2.16z" fill="url(#u)"/><path d="M1505.45 338.03l.9 11.8 19.03-19.06-6.33-6.33-13.6 13.59z" fill="url(#v)"/><path d="M1447.68 358l43.19-43.39h-12.18l-34.84 35.69h-21.56l8.69 7.7h16.7z" fill="url(#w)"/><path d="M1626.38,643.1c-14-19.75-34.73-21.46-35.43-21.45-12.76.03-26.01,2.06-38.15,6.32-5.48,2.34-19.79,8.02-20.08,8.12-39.27,14.09-54.73-12.4-48.7-23.91,5.88-11.22,12.32-11.73,15.4-14.25,3.08-2.51,7.93-26.85,7.93-26.85l-39.84-15.5s-11.85,8.16-17.82,16.36c-11.2,11.25-36.27,63.81,18.62,105.24,19.11,13.17,49.11,9.93,59.09,6.42,7.59-2.67,15.61-5.16,23.66-3.31,14.39,3.3,24.27,19.81,20.96,33.73-2.11,8.87-9.9,19.24-17.68,23.13,4.96,10.08,21.14,18.43,33.84,17.63,21.78-1.37,30.01-23.44,31-33.22,1.03-13.86-7.54-26.98-12.42-39.6-1.14-2.94-.6-6.32,3.56-8.62,5.95-3.29,14.22,2.33,18.16,8.78,8.59-10.16,4.6-29.58-2.1-39.03Z" fill="url(#x)"/><path d="M866.9 612.85l9.72 107.84-68.52 36.55-14.84-130.48 73.64-13.91z" class="AY"/><path d="M1563.45 618.65l.07-100.09-80.07-4.76v105.1l80-.25z" class="AV"/><path d="M1180.97 787.72l-62.9-26.99v-27.14l6.28-68.71 72.46-16.45-15.84 139.29z" class="AX"/><path d="M1257.35 296.23h-20.48l2.79-24.58h20.48l-2.79 24.58zm18.8 168.3h-21.86l4.45-24.57h20.48l-3.07 24.57z" class="AR"/><path d="M755.21 472.29h20.48l-2.8-24.58h-20.48l2.8 24.58z" class="AW"/><path d="M1027.27 833.76h19.83l-2.42-24.58h-20.48l3.07 24.58z" class="AR"/><use href="#AG" class="AV"/><use href="#AG" x="-233.14" y="-110.08" class="AU"/><g class="AR"><use href="#AG" x="-285.79" y="-492.03"/><use href="#AG" x="20.39" y="-315.19"/><use href="#AG" x="151.12" y="-419.36"/></g><use href="#AH" class="AU"/><use href="#AH" x="-259.06" y="247.18" class="AR"/><use href="#AH" x="-154.16" y="332.98" class="AU"/><path d="M1757.37 24.56h-20.39V0h20.39z" class="AR"/><use href="#AH" x="817.83" y="-416.14" class="AU"/><path d="M963.99 1064.57H943.6v-24.56h20.39z" class="AR"/><g class="AU"><use href="#AH" x="178.51" y="-77.68"/><use href="#AH" x="488.99" y="-301.53"/><use href="#AH" x="756.22" y="69.45"/></g><path d="M20.39 239.26H0V214.7h20.39z" class="AW"/><g class="AR"><use href="#AH" x="-185.38" y="-587.65"/><use href="#AH" x="-890.47" y="192.92"/><use href="#AH" x="-870.07" y="217.47"/><use href="#AH" x="-1205.02" y="345.26"/></g><use href="#AH" x="-1477.97" y="38.65" class="AW"/><g class="AR"><use href="#AH" x="-1011.03" y="77.41"/><path d="M725.71 759.36h-20.39V734.8h20.39z"/></g><g class="AW"><use href="#AH" x="-1094.75" y="-89.96"/><use href="#AH" x="-961.99" y="-277.23"/><use href="#AH" x="-1147.87" y="-564.1"/><use href="#AH" x="-763" y="-539.54"/><path d="M788.7 36.84h-20.39V12.28h20.39z"/></g><path d="M1857.52 978.76h-20.39V954.2h20.39z" class="AU"/><g class="AT"><path d="M1557.14,458.81c-3.78-.2-7.79,2.15-11.29,3.29-.28.09-.55.14-.82.16-1.99,16.58-26.64,42.73-30.36,44.68-4,1.95-14.65,5.22-17.6,6.42-3.11,1.13-12.38,6.85-12.38,6.85l-7.94,15.44c1.49,1.14,6-3.69,6-3.69l-.73,8.56c2.63,1.18,5.89-11.03,5.89-11.03l-1.29,11.04c3.28,2,7.06-13.09,7.06-13.09l3.89-2.18c-4.74,3.39-4.9,7.37-3.57,8.45,1.26,1.24,13.75-8.44,15.37-9.18,1.56-.56,7.43-2.38,10.07-5.81,8.36-11.33,37.54-26.14,47.09-49.9.19-.27.38-.55.57-.84-1.8-3.94-5.65-8.95-9.96-9.18Z" fill="url(#y)"/><path d="M1521 384.74c-10.27 20.61 23.52 31.82 23.55 86.28h-.01s0 .03.01.04v.15a1.06 1.06 0 0 1 .1.12c.46 1.14.82 2.4 1.09 3.75 3 2.67 6.13 4.84 10.39 3.61 5.5-1.58 7.91-6.25 11.28-10.22 1.48-10.32-3.52-28.3-8.69-50.99-7.11-10.26-13.21-24.04-16.73-29.77-10.17-16.56-21.57 3.39-20.99-2.96z" fill="url(#z)"/></g><path d="M1446.298 351.949l25.497-12.824c1.456-.732 3.242-.142 3.974 1.314l3.042 6.048a12.28 12.28 0 0 1-5.449 16.475l-17.171 8.636a3.24 3.24 0 0 1-4.35-1.439l-6.978-13.874a3.24 3.24 0 0 1 1.439-4.35z" class="AX"/><path d="M1448.24,348.72h18.68c2.2,0,3.98,1.78,3.98,3.98v10.63c0,2.2-1.78,3.98-3.98,3.98h-18.68c-.63,0-1.13-.51-1.13-1.13v-16.32c0-.63.51-1.13,1.13-1.13Z" transform="matrix(.893371 -.449319 .449319 .893371 -5.32 693.63)" fill="url(#AA)"/><use href="#AI" class="AV"/><path d="M928.43,339.88h19.27c2.26,0,4.1,1.84,4.1,4.1v10.97c0,2.26-1.84,4.1-4.1,4.1h-19.27c-.65,0-1.17-.52-1.17-1.17v-16.84c0-.65.52-1.17,1.17-1.17Z" transform="matrix(.906234 .422776 -.422776 .906234 235.78 -364.38)" fill="url(#AB)"/><use href="#AI" x="350.513" y="199.408" class="AY"/><path d="M1278.98,539.27h19.27c2.26,0,4.1,1.84,4.1,4.1v10.97c0,2.26-1.84,4.1-4.1,4.1h-19.27c-.65,0-1.17-.52-1.17-1.17v-16.84c0-.65.52-1.17,1.17-1.17Z" transform="matrix(.906234 .422776 -.422776 .906234 352.92 -493.87)" fill="url(#AC)"/><use href="#AF" fill="url(#h)"/><path d="M1447.68 358l42.37-42.55h-12.19l-34.01 34.85h-21.56l8.69 7.7h16.7z" fill="url(#AD)"/><use href="#AE" fill="url(#R)"/></svg>